<svg xmlns="http://www.w3.org/2000/svg" viewBox="0 0 786.15 159.07"><defs><style>.cls-1{fill:#507ed9;}.cls-1,.cls-2,.cls-3,.cls-4,.cls-5,.cls-6,.cls-7,.cls-8{stroke:#000;}.cls-1,.cls-2,.cls-4,.cls-5,.cls-6,.cls-7{stroke-linecap:round;stroke-linejoin:round;}.cls-2{fill:#436df4;}.cls-3{fill:#fff;}.cls-3,.cls-8{stroke-miterlimit:10;}.cls-4{fill:#6d59ff;}.cls-5{fill:#635ffe;}.cls-6{fill:#9000f4;}.cls-6,.cls-7{stroke-width:1.32px;}.cls-7{fill:#0600e9;}.cls-8{fill:#6263ff;}</style></defs><title>Asset 1</title><g id="Layer_2" data-name="Layer 2"><g id="Layer_1-2" data-name="Layer 1"><path class="cls-1" d="M9,47.58l-1.3,9c-.1,1.3-2,3-5.8,5-2.2,4-.4,9.4,5.4,16.4l22.5-10.9a14.87,14.87,0,0,0,2.3-9.2l-5.6,2.4,5.6-2.4a8.87,8.87,0,0,0-.7-2.8C24.7,42.58,17.2,40.08,9,47.58Z"/><path class="cls-2" d="M106.3,23.28a41.73,41.73,0,0,0-12.8-9c-13.7-4.5-25.9-2.2-36.8,7-8.3,8.8-11.2,17.2-8.8,25.3a28.67,28.67,0,0,0,7.4.8,29,29,0,0,1-7.5-.8,7.09,7.09,0,0,1-2.1-.8c-18.3-7.1-30.5-6.5-36.7,1.8q12.3-11.25,22.5,7.5a14.34,14.34,0,0,1,.7,2.8c.3,2.9-.5,5.9-2.3,9.2l13,18.2,14-21.5,3.7-5.7-3.7,5.7q17.4,16.65,37.8,6.6c13.6-6.7,20.1-16.5,19.3-29.5a28.31,28.31,0,0,0-7.7-17.6M73,18.38c1.7,0,3.4.8,5.3,2.3s2.8,3.2,2.8,4.8a5.42,5.42,0,0,1-.7,3.2c-.5.7-1.5,1-2.9,1a3.94,3.94,0,0,1-1.4-.5q-1-.6-1.5.6a60.74,60.74,0,0,1-4.3,7,4.34,4.34,0,0,1-3.1,1.5,9.08,9.08,0,0,1-5.6-2.2c-1.9-1.5-2.9-3-2.9-4.7s2-4.2,6.1-7.7,6.9-5.3,8.2-5.3m16,11.1a6.05,6.05,0,0,1-.9-3.5c.3-1.8.8-2.7,1.3-2.8a6.64,6.64,0,0,1,1.3-.1,4.89,4.89,0,0,1,3.3,1.4,5,5,0,0,1,1.7,3.8,2.43,2.43,0,0,1-1.1,2,4.62,4.62,0,0,1-2.5.7,4,4,0,0,1-3.1-1.5m57.6.5c-.3.8-.8,2.1-1.6,3.9a7.19,7.19,0,0,0-.8,4.5c.3,1.3,1.6,2.7,3.7,4.3s3.5,3,3.9,4.2a5.67,5.67,0,0,1,.1,2.9,6.78,6.78,0,0,1-1.3,2.7,12,12,0,0,1-2.9,2.4c.1,0,.3-.1.4-.1,10.3-.4,9.7-8.7-1.5-24.8m-3.9-20.4c-.8-1.1-1.5-2.3-2.3-3.6a12.83,12.83,0,0,0-4.3-3.9,8.34,8.34,0,0,0-5.8-1.5,6.57,6.57,0,0,0-4.3,2.5,92.8,92.8,0,0,0-6.2,9.3,30.47,30.47,0,0,1-6.3,7.3,16.15,16.15,0,0,1-7.3,3.6,28.08,28.08,0,0,1,7.7,17.6q7.2,1.2,10.2,2.7a15.26,15.26,0,0,1,5.6,5c1.7,2.4,3.1,3.8,4,4.2s2.6,1.2,4.9,2.3,4.2,1.4,5.8.9a15.92,15.92,0,0,0,3.3-1.2,11.76,11.76,0,0,0,2.9-2.3,6.78,6.78,0,0,0,1.3-2.7,4.12,4.12,0,0,0-.1-2.9c-.4-1.2-1.8-2.6-3.9-4.2s-3.4-3-3.7-4.3a6.49,6.49,0,0,1,.8-4.5c.8-1.8,1.3-3.1,1.6-3.9a2.54,2.54,0,0,0,.2-.7,6.9,6.9,0,0,0-.6-4.2,7.33,7.33,0,0,0-2.7-3.3A11.45,11.45,0,0,1,141,20a2.79,2.79,0,0,1-.6-1.8l2.8-2.7a2.71,2.71,0,0,0,.6-1.9,6.7,6.7,0,0,0-1.1-4Z"/><path class="cls-3" d="M88,26a6.05,6.05,0,0,0,.9,3.5,3.68,3.68,0,0,0,3.1,1.4,3.9,3.9,0,0,0,2.5-.7,2.72,2.72,0,0,0,1.1-2,5,5,0,0,0-1.7-3.8A4.89,4.89,0,0,0,90.6,23a6.64,6.64,0,0,0-1.3.1c-.5.2-.9,1.1-1.3,2.9m-9.7-5.3a8.51,8.51,0,0,0-5.3-2.3c-1.3,0-4,1.8-8.2,5.3s-6.2,6-6.1,7.7,1,3.2,2.9,4.7a8.87,8.87,0,0,0,5.6,2.2,4.34,4.34,0,0,0,3.1-1.5c.4-.5,1.8-2.8,4.3-7,.3-.8.8-1,1.6-.6a5.93,5.93,0,0,0,1.4.5c1.4,0,2.4-.3,2.9-1a6,6,0,0,0,.7-3.2C81.1,23.88,80.2,22.28,78.3,20.68Z"/><path class="cls-4" d="M43.2,87.28a31,31,0,0,0-3.7,12.4,31.83,31.83,0,0,0,.5,8.1c4.3,12.9,14,20.5,29.3,22.7,11.2.5,20.1-2.5,26.8-8.9a31.83,31.83,0,0,0-1.4-4.6,31.83,31.83,0,0,1,1.4,4.6c.3,1.1.5,2.2.8,3.5.4,1.8.9,4.6,1.6,8.3,1.6,6.9,4.1,11.8,7.5,14.8q3.6,3,7.2,2.7l.6-.1c2.1-.3,4.3-1.7,6.6-4.4,5.1-5.5,7.9-10.3,8.3-14.6s-.3-7.7-1.9-10.3a26.09,26.09,0,0,0-6.8-6.9c.8-3.3,3.2-6.6,7.1-9.9q5.25-4.35,9.6-4.5-.9-1.8-6.6-1.8c-7.1-.2-12.6.6-16.7,2.3q-5.25,2.1-8.1,3.3a6.89,6.89,0,0,0-.8.3,14.43,14.43,0,0,1-6.3.7,14.43,14.43,0,0,0,6.3-.7,6.89,6.89,0,0,0,.8-.3c2.4-8.7-.1-16.7-7.6-24a36.09,36.09,0,0,0-18.8-9.6,33.49,33.49,0,0,0-20.8,2.4A31,31,0,0,0,47.3,81a62.37,62.37,0,0,0-4.1,6.3m3.7,14.1c-.8-1.3-.3-4.6,1.5-9.8s3.2-8.2,4.3-8.9a7.67,7.67,0,0,1,5.4-1.1c2.3.2,3.8,1,4.7,2.3a5,5,0,0,1,.9,2.9,3.62,3.62,0,0,1-1.9,2.5,2.91,2.91,0,0,1-1.4.4,1,1,0,0,0-.9,1.3c-.1,4.8-.1,7.5-.3,8.1a4.8,4.8,0,0,1-1.8,3.1,8.39,8.39,0,0,1-5.5,1.3c-2.6,0-4.2-.8-5-2.1m25.7-25.6a4.06,4.06,0,0,1,3.1,2.1,2.62,2.62,0,0,1,.2,2.3,6.68,6.68,0,0,1-1.8,2,3.49,3.49,0,0,1-3.2.5,5.47,5.47,0,0,1-2.5-2.3c-.6-1.7-.6-2.7-.3-3.1a3.32,3.32,0,0,1,1.1-.8,4.91,4.91,0,0,1,3.4-.7m29.7,44.5,7.7,6.1-7.7-6.1M22.1,59.08a10.21,10.21,0,0,0-4.1.6,42.36,42.36,0,0,0-3.9,1.7A22,22,0,0,0,9.7,64a8,8,0,0,0-3,3.7,13.7,13.7,0,0,0-.5,3.9,24,24,0,0,1,0,4A19.38,19.38,0,0,1,4,81.78,37.25,37.25,0,0,0,1.2,88a16.46,16.46,0,0,0,.6,11.1,22.5,22.5,0,0,0,6.5,9.4c3.2,2.8,6.3,4.2,9.4,4.2a13.14,13.14,0,0,0,6.4-2.3,46.58,46.58,0,0,0,5.5-4.7,29.42,29.42,0,0,1,5.8-4.3,10,10,0,0,1,3.9-1.3A30.51,30.51,0,0,1,43,87.68a35,35,0,0,1,4.3-6.3A20.19,20.19,0,0,1,40.4,78a31.24,31.24,0,0,1-7.4-7.9c-2.4-3.6-4-5.8-4.7-6.7a8.65,8.65,0,0,0-6.2-4.3m10.7,32.7a37.36,37.36,0,0,1,5.2.3c-1.4-.1-3.1-.2-5.2-.3h0Z"/><path class="cls-5" d="M143.8,105c-.6-1.2-2.1-2.4-4.6-3.4-1-.4-1.8-.8-2.6-1.2q-4.35.15-9.6,4.5c-4,3.3-6.4,6.6-7.1,9.9a26.09,26.09,0,0,1,6.8,6.9c1.6,2.5,2.3,5.9,1.9,10.3s-3.1,9.1-8.3,14.6c-2.3,2.6-4.5,4.1-6.7,4.4l-.6.1a2.92,2.92,0,0,0,.2.9,3.15,3.15,0,0,0,2.1,2.1c1.3.4,3.2.1,5.8-1,13.9-6.2,23.4-14.1,28.5-23.6a12.66,12.66,0,0,0,1.8-5.8,5.68,5.68,0,0,0-2-5c-.3-.2-.9-.6-1.8-1.1a7,7,0,0,1-1.8-1.2c-1-1-1.5-2.8-1.4-5.4q.3-4.5-.6-6Z"/><path class="cls-3" d="M75.7,77.88a4.06,4.06,0,0,0-3.1-2.1,4.11,4.11,0,0,0-3.3.7c-.3.2-.6.5-1.1.8s-.3,1.3.3,3.1a4.58,4.58,0,0,0,2.5,2.3,3.07,3.07,0,0,0,3.1-.6,4.76,4.76,0,0,0,1.8-2,2.46,2.46,0,0,0-.2-2.2M48.3,91.58c-1.7,5.2-2.2,8.5-1.5,9.8s2.4,2.1,4.7,2.2a8.24,8.24,0,0,0,5.5-1.3,4.55,4.55,0,0,0,1.8-3.1q.15-.9.3-8.1c-.1-.8.2-1.2.9-1.3a3.28,3.28,0,0,0,1.4-.4,3.62,3.62,0,0,0,1.9-2.5,5,5,0,0,0-.9-2.9c-.8-1.4-2.3-2.2-4.7-2.3a7.4,7.4,0,0,0-5.3,1.1C51.5,83.38,50.1,86.38,48.3,91.58Z"/><path class="cls-6" d="M211.45,23.74,192.38,68.37l-16-21.85L156.09,66.78l-12.45-44.9-29.27,2.26,22.91,90.46,20.26-1.46,13-24.11,9,24.11h22.65L242,30.49Z"/><path class="cls-7" d="M285.62,57.38l1.19-10.6c-8.74-1.32-16.29.4-22.91,5l1.06-5H252L237.41,118h12.31l7.55-35.63c4.51-15.76,14-24.1,28.35-25m49.27,50.73c8.47-10.47,13-23.18,13.37-38.28s-7.55-22.91-24.37-22.78c-13.9.13-22.25,5.83-24.9,17.08h11.79c1.72-4.63,6.49-6.75,14.17-6.35S336.21,62.94,335.68,72H313c-16.95,0-26.35,7.15-28.34,21.59-1.19,14.43,6,22.51,21.59,24.37.66,0,1.32.13,2,.13a4.2,4.2,0,0,1,1.33.13,36.58,36.58,0,0,0,25.3-10.06m-22.65-1.33c-11.66.27-16.95-4.1-15.76-13.24q1.78-9.54,12.31-11.13h25.57c-2.39,15.9-9.8,24-22.12,24.37m109.93-30.2c1.32-8.47-.8-16.42-6.23-23.84s-15-9.66-28.34-6.35S365,59.23,359.79,74.86c-1.59,5.17-6.23,26.23-13.91,63.44h12.45L365,111c6,5.56,13.78,7.55,23.31,5.83,11-1.86,19.34-7,25.17-15.63a74.56,74.56,0,0,0,8.74-24.64m-25.3-20c10.6.92,14.7,7.81,12.32,20.39-3.58,18-10.73,28-21.59,29.67-13.38.66-18.68-7.15-16-23.58,3.71-17.88,12.19-26.75,25.3-26.48m90.33-3.85c-5.43-7.54-15-9.66-28.35-6.35S436.21,59.23,431,74.86c-1.59,5.17-6.22,26.23-13.91,63.44h12.45L436.21,111c6,5.56,13.77,7.55,23.31,5.83,11-1.86,19.33-7,25.16-15.63a72.35,72.35,0,0,0,8.74-24.64c1.33-8.47-.79-16.42-6.22-23.84M442.7,83.21c3.71-17.88,12.18-26.76,25.29-26.62,10.6.92,14.71,7.81,12.32,20.39-3.58,18-10.73,28-21.59,29.67-13.24.79-18.54-7-16-23.44m112.44,4.5a88.79,88.79,0,0,0,2.78-18.41q1-21.06-18.27-22.65-19.08-1.59-30.2,8c-.66.66-1.33,1.19-2,1.85a32.33,32.33,0,0,0-6,9.14,45.22,45.22,0,0,0-3.18,9.54c-1.45,4.77-2.38,11.26-2.65,19.47s2.26,14.43,7.69,18.94c3.7,3,8.87,4.63,15.62,4.63,15.5,0,24.11-5.83,25.83-17.35h-12c-1.46,5.43-6.09,7.68-14,6.89s-11.39-7.55-10.6-20.13h47m-45-10.47c3-13,10.33-19.47,21.85-19.6,10.87.93,15.5,7.42,13.78,19.6H510.11m97.48-19.73,1.06-10.6c-8.74-1.32-16.29.4-22.91,5l1.06-5H574L559.38,118H571.7l7.55-35.63c4.63-15.76,14-24.1,28.34-25Z"/><path class="cls-8" d="M500.81,139.62a21,21,0,0,1-1.21,7,17.73,17.73,0,0,1-3.52,6A17.35,17.35,0,0,1,490.2,157a18.9,18.9,0,0,1-7.73,1.49q-6,0-9.33-3.08a10.9,10.9,0,0,1-3.36-8.46,20.24,20.24,0,0,1,1.28-7.21,18.23,18.23,0,0,1,3.7-6,17,17,0,0,1,5.8-4,18.69,18.69,0,0,1,7.54-1.5q6,0,9.34,3.08A10.75,10.75,0,0,1,500.81,139.62Zm-10.72,9.92a13.6,13.6,0,0,0,2.08-4,17,17,0,0,0,.75-5.28,7.35,7.35,0,0,0-1.49-4.89,5.28,5.28,0,0,0-4.27-1.77,7.55,7.55,0,0,0-3.47.83,9.36,9.36,0,0,0-3,2.53,12.54,12.54,0,0,0-2.16,4,16.72,16.72,0,0,0-.82,5.42,7.3,7.3,0,0,0,1.53,5,5.44,5.44,0,0,0,4.25,1.7,7.55,7.55,0,0,0,3.61-.93A9.16,9.16,0,0,0,490.09,149.54Z"/><path class="cls-8" d="M528,140.91a11.85,11.85,0,0,1-.08,1.27,13.45,13.45,0,0,1-.25,1.43l-3.28,14.27h-7.12l2.5-10.87q.27-1.22.42-2.07a8.6,8.6,0,0,0,.16-1.61,2.39,2.39,0,0,0-.64-1.85,3.59,3.59,0,0,0-2.37-.59,6.27,6.27,0,0,0-1.93.36,16.94,16.94,0,0,0-2.47,1.09l-3.57,15.54h-7.07L507.32,136h7.08l-.58,2.42a28.62,28.62,0,0,1,4-2.22,9.45,9.45,0,0,1,3.94-.81,6.81,6.81,0,0,1,4.6,1.43A5.2,5.2,0,0,1,528,140.91Z"/><path class="cls-8" d="M544.85,127.49l-7,30.39h-7.08l7-30.39Z"/><path class="cls-8" d="M556.59,136l-5.09,21.93h-7.08L549.51,136Zm2.15-8.46-1.23,5.34h-7.46l1.23-5.34Z"/><path class="cls-8" d="M583.8,140.91a11.85,11.85,0,0,1-.08,1.27,13.45,13.45,0,0,1-.25,1.43l-3.28,14.27h-7.12l2.5-10.87q.27-1.22.42-2.07a8.6,8.6,0,0,0,.16-1.61,2.39,2.39,0,0,0-.64-1.85,3.59,3.59,0,0,0-2.37-.59,6.27,6.27,0,0,0-1.93.36,16.48,16.48,0,0,0-2.47,1.09l-3.57,15.54H558.1L563.16,136h7.08l-.58,2.42a28.62,28.62,0,0,1,4-2.22,9.45,9.45,0,0,1,3.94-.81,6.81,6.81,0,0,1,4.6,1.43A5.2,5.2,0,0,1,583.8,140.91Z"/><path class="cls-8" d="M599,158.49q-5.61,0-8.66-2.48a8.36,8.36,0,0,1-3-6.86,14.82,14.82,0,0,1,1-5.5,13.07,13.07,0,0,1,2.88-4.4,12.83,12.83,0,0,1,4.49-2.91,16,16,0,0,1,5.92-1.07c3.28,0,5.74.66,7.4,2a7.06,7.06,0,0,1,2.5,5.86,12.47,12.47,0,0,1-.27,2.6,23.15,23.15,0,0,1-.69,2.53H594.15v.44a4.34,4.34,0,0,0,1.61,3.58,7.75,7.75,0,0,0,4.91,1.29,12.32,12.32,0,0,0,4.38-.78,20.35,20.35,0,0,0,3.59-1.74h.78l-1.31,5.64a21.12,21.12,0,0,1-4.32,1.36A24,24,0,0,1,599,158.49Zm5.38-14.38c0-.23.06-.45.08-.64a6.08,6.08,0,0,0,0-.61,2.94,2.94,0,0,0-1-2.37,4.12,4.12,0,0,0-2.76-.83,5.68,5.68,0,0,0-3.66,1.18,7.2,7.2,0,0,0-2.24,3.27Z"/><path class="cls-8" d="M656.42,136.13a8.51,8.51,0,0,1-2.13,5.88,13.17,13.17,0,0,1-5.79,3.59l6.72,12.28h-8.37l-5.48-10.66h-4.21l-2.47,10.66H627.2l6.71-29.08h11.35c3.56,0,6.3.6,8.24,1.81A6,6,0,0,1,656.42,136.13Zm-8.09,1.26a2.74,2.74,0,0,0-1.12-2.49,6.2,6.2,0,0,0-3.31-.73h-3.72L638.37,142h3.69a7.66,7.66,0,0,0,4.63-1.22A4,4,0,0,0,648.33,137.39Z"/><path class="cls-8" d="M670.49,158.49q-5.61,0-8.66-2.48a8.39,8.39,0,0,1-3.05-6.86,14.63,14.63,0,0,1,1-5.5,12.76,12.76,0,0,1,7.37-7.31,16,16,0,0,1,5.92-1.07q4.9,0,7.4,2a7.06,7.06,0,0,1,2.49,5.86,12.47,12.47,0,0,1-.27,2.6,19.38,19.38,0,0,1-.69,2.53H665.67v.44a4.34,4.34,0,0,0,1.61,3.58,7.77,7.77,0,0,0,4.91,1.29,12.32,12.32,0,0,0,4.38-.78,19.69,19.69,0,0,0,3.59-1.74H681l-1.31,5.64a21.52,21.52,0,0,1-4.32,1.36A24,24,0,0,1,670.49,158.49Zm5.38-14.38c0-.23.07-.45.09-.64a6.08,6.08,0,0,0,0-.61,2.94,2.94,0,0,0-1-2.37,4.16,4.16,0,0,0-2.77-.83,5.68,5.68,0,0,0-3.66,1.18,7.27,7.27,0,0,0-2.24,3.27Z"/><path class="cls-8" d="M710.6,143a17.83,17.83,0,0,1-1,5.8,16.28,16.28,0,0,1-2.65,4.91,13.38,13.38,0,0,1-4,3.38,10.48,10.48,0,0,1-5.1,1.26,13.24,13.24,0,0,1-3.29-.37,7.91,7.91,0,0,1-2.59-1.15l-.51,1.09h-6.79l7-30.39h7.08l-2.48,10.75a23.57,23.57,0,0,1,3.6-2.1,9,9,0,0,1,3.82-.8,6.44,6.44,0,0,1,5.15,2A8.28,8.28,0,0,1,710.6,143Zm-7.45,1.31a4.22,4.22,0,0,0-.8-2.79,3.44,3.44,0,0,0-2.77-1,6,6,0,0,0-2,.36,17.86,17.86,0,0,0-2.11,1l-2.52,11a8.42,8.42,0,0,0,1.45.44,8,8,0,0,0,1.71.17,6.11,6.11,0,0,0,5.17-2.57A10.73,10.73,0,0,0,703.15,144.27Z"/><path class="cls-8" d="M737.94,144a16,16,0,0,1-1,5.78,13.42,13.42,0,0,1-7.44,7.72,15.28,15.28,0,0,1-6,1.09q-4.91,0-7.52-2.35a8.23,8.23,0,0,1-2.62-6.48,16,16,0,0,1,1-5.57,13.53,13.53,0,0,1,2.89-4.65,13.14,13.14,0,0,1,4.56-3.11,15.44,15.44,0,0,1,6.06-1.14q4.92,0,7.53,2.31A8.11,8.11,0,0,1,737.94,144Zm-9.14,7.19a11,11,0,0,0,1.36-3,15,15,0,0,0,.45-4,4.82,4.82,0,0,0-.87-3.09,3.38,3.38,0,0,0-2.8-1.09,4.68,4.68,0,0,0-2.6.72,6.9,6.9,0,0,0-2,2.06,10.26,10.26,0,0,0-1.26,3,15.49,15.49,0,0,0-.46,3.73,4.39,4.39,0,0,0,1,3.22,3.77,3.77,0,0,0,2.73,1,4.76,4.76,0,0,0,2.45-.69A6.16,6.16,0,0,0,728.8,151.17Z"/><path class="cls-8" d="M759.52,142.65h-.62a6.26,6.26,0,0,0-1.33-.23,16.06,16.06,0,0,0-1.69-.08,17.87,17.87,0,0,0-2.68.2,17.68,17.68,0,0,0-2.65.66l-3.4,14.68h-7.08L745.15,136h7.08l-.74,3.22a23.17,23.17,0,0,1,4-2.38,9.43,9.43,0,0,1,4-.92l.83,0q.47,0,.81.06Z"/><path class="cls-8" d="M785.65,140.91a11.69,11.69,0,0,1-.07,1.27,13.57,13.57,0,0,1-.26,1.43l-3.27,14.27h-7.12L777.42,147c.18-.81.33-1.5.43-2.07a9.53,9.53,0,0,0,.16-1.61,2.39,2.39,0,0,0-.65-1.85,3.57,3.57,0,0,0-2.36-.59,6.33,6.33,0,0,0-1.94.36,16.41,16.41,0,0,0-2.46,1.09L767,157.88H760L765,136h7.07l-.58,2.42a28.62,28.62,0,0,1,4-2.22,9.49,9.49,0,0,1,3.95-.81,6.78,6.78,0,0,1,4.59,1.43A5.17,5.17,0,0,1,785.65,140.91Z"/></g></g></svg>